# xmcd
#
# Track frame offsets:
#	182
#	12625
#	26765
#	39130
#	50335
#	60627
#	75305
#	85620
#	96467
#	108062
#	119492
#	131937
#	144067
#	158197
#	174457
#	183720
#	196645
#	214867
#
# Disc length: 3117 seconds
# Revision: 4
# Processed by: cddbd v1.5.2PL0 Copyright (c) Steve Scherf et al.
# Submitted via: dBpowerAMP V12.0
#
DISCID=ea0c2b12
DTITLE=Johnny Paycheck - Country 6
DYEAR=1998
DGENRE=Country
TTITLE0=She's all I got
TTITLE1=Someone to give my love to
TTITLE2=Song and dance man
TTITLE3=For a minute there
TTITLE4=A-11
TTITLE5=Green, green grass of home
TTITLE6=Don't monkey with another
TTITLE7=Apartment No' 9
TTITLE8=Take this job and shove it
TTITLE9=Release me
TTITLE10=Heaven's almost as big as Texas
TTITLE11=All the time
TTITLE12=I'm only the hell
TTITLE13=Danny boy
TTITLE14=Mr. Lovemaker
TTITLE15=Keep on lovin' me
TTITLE16=Billy Jack Washburn
TTITLE17=Sunday morning coming down
EXTD=
EXTT0=
EXTT1=
EXTT2=
EXTT3=
EXTT4=
EXTT5=
EXTT6=
EXTT7=
EXTT8=
EXTT9=
EXTT10=
EXTT11=
EXTT12=
EXTT13=
EXTT14=
EXTT15=
EXTT16=
EXTT17=
PLAYORDER=
